# xmcd
#
# Track frame offsets: 
#        150
#        20056
#        41257
#        57903
#        80495
#        119395
#        142512
#        164103
#        184177
#        197845
#        230233
#        258879
#
# Disc length: 3703 seconds
#
# Revision: 0
# Processed by: cddbd v1.4PL0 Copyright (c) Steve Scherf et al.
# Submitted via: ExactAudioCopy v0.90a11
#
DISCID=a40e750c
DTITLE=Eric Clapton and B.B. King - Riding With The King
DYEAR=1900
DGENRE=
TTITLE0=Riding With The King
TTITLE1=Ten Long Years
TTITLE2=Key To The Highway
TTITLE3=Marry You
TTITLE4=Three O'Clock Blues
TTITLE5=Help The Poor
TTITLE6=I Wanna Be
TTITLE7=Worried Life Blues
TTITLE8=Days Of Old
TTITLE9=When My Heart Beats Like A Hammer
TTITLE10=Hold On I'm Coming
TTITLE11=Come Rain Or Come Shine
EXTD=It sounds like the beginning of a story: "So, Slowhand and the Ki
EXTD=ng of the Blues\nwere riding in a car ..." If this is a musical j
EXTD=ourney, it's the kind that rolls down\nlong, empty stretches of c
EXTD=ountry highway at 80 miles an hour, with the top\ndown and the st
EXTD=ereo blasting. Clapton and King may be more city than\ncountry, b
EXTD=ut this collection has the relaxed, laid-back feel that only come
EXTD=s\nfrom a pair of veterans doing what they do best. What they do 
EXTD=here is cover\n12 classic blues songs, many of them staples of Ki
EXTD=ng's repertoire, so the\ntitle of this album makes sense. Whether
EXTD=it's the rollicking rock and roll of\nthe title track, or the acou
EXTD=stic shuffle of "Key to the Highway," or the sweet\nnotes of "Whe
EXTD=n My Heart Beats Like a Hammer," a real sense of pleasure\ncomes 
EXTD=through on this album, the kind of pleasure one gets from jamming
EXTD=\nlate at night with a good friend. --Genevieve Williams \n
EXTT0=
EXTT1=
EXTT2=
EXTT3=
EXTT4=
EXTT5=
EXTT6=
EXTT7=
EXTT8=
EXTT9=
EXTT10=
EXTT11=
PLAYORDER=
